<svg xmlns="http://www.w3.org/2000/svg" aria-hidden="true">
    <symbol id="fp-exp-flag-globe" viewBox="0 0 24 16">
        <rect width="24" height="16" fill="#0f172a" rx="2"/>
        <circle cx="12" cy="8" r="6" fill="#38bdf8"/>
        <path d="M12 2v12M6 8h12M9 4a10 10 0 0 0 0 8M15 4a10 10 0 0 1 0 8" stroke="#0f172a" stroke-width="1.5" fill="none" stroke-linecap="round"/>
    </symbol>
    <symbol id="fp-exp-flag-it" viewBox="0 0 24 16">
        <rect width="24" height="16" fill="#fff"/>
        <rect width="8" height="16" fill="#009246"/>
        <rect x="16" width="8" height="16" fill="#ce2b37"/>
    </symbol>
    <symbol id="fp-exp-flag-en" viewBox="0 0 24 16">
        <rect width="24" height="16" fill="#012169"/>
        <path d="M0 0l10 6.5V0H14V6.5L24 0v4l-8 5 8 5v2l-10-6.5V16H10v-6.5L0 16V12l8-5-8-5z" fill="#fff"/>
        <path d="M10 0h4v6.5L24 0v2l-8 5h8v2h-8l8 5v2l-10-6.5V16h-4v-6.5L0 16v-2l8-5H0V7h8L0 2V0l10 6.5z" fill="#c8102e"/>
    </symbol>
    <symbol id="fp-exp-flag-fr" viewBox="0 0 24 16">
        <rect width="24" height="16" fill="#fff"/>
        <rect width="8" height="16" fill="#0055a4"/>
        <rect x="16" width="8" height="16" fill="#ef4135"/>
    </symbol>
    <symbol id="fp-exp-flag-de" viewBox="0 0 24 16">
        <rect width="24" height="16" fill="#000"/>
        <rect y="5.33" width="24" height="5.34" fill="#dd0000"/>
        <rect y="10.66" width="24" height="5.34" fill="#ffce00"/>
    </symbol>
    <symbol id="fp-exp-flag-es" viewBox="0 0 24 16">
        <rect width="24" height="16" fill="#aa151b"/>
        <rect y="4" width="24" height="8" fill="#f1bf00"/>
    </symbol>
    <symbol id="fp-exp-flag-pt" viewBox="0 0 24 16">
        <rect width="24" height="16" fill="#da251d"/>
        <rect width="9" height="16" fill="#006600"/>
        <circle cx="9.5" cy="8" r="3.2" fill="#ffcc29"/>
        <circle cx="9.5" cy="8" r="2.2" fill="#002776"/>
    </symbol>
    <symbol id="fp-exp-flag-nl" viewBox="0 0 24 16">
        <rect width="24" height="16" fill="#21468b"/>
        <rect y="5.33" width="24" height="5.34" fill="#fff"/>
        <rect y="10.66" width="24" height="5.34" fill="#ae1c28"/>
    </symbol>
    <symbol id="fp-exp-flag-ru" viewBox="0 0 24 16">
        <rect width="24" height="16" fill="#0039a6"/>
        <rect y="5.33" width="24" height="5.34" fill="#fff"/>
        <rect y="10.66" width="24" height="5.34" fill="#d52b1e"/>
    </symbol>
    <symbol id="fp-exp-flag-ja" viewBox="0 0 24 16">
        <rect width="24" height="16" fill="#fff"/>
        <circle cx="12" cy="8" r="4.5" fill="#bc002d"/>
    </symbol>
    <symbol id="fp-exp-flag-zh" viewBox="0 0 24 16">
        <rect width="24" height="16" fill="#de2910"/>
        <polygon points="6,3 6.9,5.7 4.5,4.1 7.5,4.1 5.1,5.7" fill="#ffde00"/>
        <polygon points="9,2.5 9.4,3.7 8.3,3 9.7,3 8.6,3.7" fill="#ffde00"/>
        <polygon points="10.5,4 10.9,5.2 9.8,4.5 11.2,4.5 10.1,5.2" fill="#ffde00"/>
        <polygon points="10.5,6.5 10.9,7.7 9.8,7 11.2,7 10.1,7.7" fill="#ffde00"/>
        <polygon points="9,8.5 9.4,9.7 8.3,9 9.7,9 8.6,9.7" fill="#ffde00"/>
    </symbol>
    <symbol id="fp-exp-flag-ar" viewBox="0 0 24 16">
        <rect width="24" height="16" fill="#ce1126"/>
        <rect y="5.33" width="24" height="5.34" fill="#fff"/>
        <rect y="10.66" width="24" height="5.34" fill="#007a3d"/>
        <path d="M12 8a1.8 1.8 0 0 1-.9 1.56 1.8 1.8 0 1 0 0-3.12A1.8 1.8 0 0 1 12 8Z" fill="#ce1126"/>
    </symbol>
    <symbol id="fp-exp-flag-pl" viewBox="0 0 24 16">
        <rect width="24" height="16" fill="#fff"/>
        <rect y="8" width="24" height="8" fill="#dc143c"/>
    </symbol>
</svg>
